<svg xmlns="http://www.w3.org/2000/svg" viewBox="0 0 24 24" width="24" height="24" fill="none">
	<path d="M21 12.5a8.38 8.38 0 0 1-1.9 5.4l.1.9-2.7-.9a8.5 8.5 0 1 1 4.5-6.3z" stroke="#25D366" stroke-width="1.4" fill="none" />
	<path d="M16.5 15.5c-.4 0-1.1-.2-2.7-1.1-.9-.5-1.6-.8-2.2-.8-.3 0-.6-.1-.6-.4l-.3-1.2c0-.2.1-.4.4-.4.3 0 .5 0 .7.1.3.1.6.3 1.1.6.7.5 1 .6 1.4.6.2 0 .5 0 .5-.4 0-.2 0-.3-.1-.4-.1-.2-.9-1.2-1-1.4-.3-.3-.5-.3-.8-.4-.2 0-.4 0-.7.1-.4.1-1 .4-1.1.4-.2 0-.3 0-.4-.1l-.2-.7c0-.3.1-.5.3-.6.4-.1 1.3-.2 1.9-.2.6 0 1.4.1 2 .4.7.3 1.3.9 1.6 1.4.4.8.2 1.6-.1 1.9-.2.2-.6.4-.8.4z" stroke="#25D366" stroke-width="1.4" fill="#25D366" />
</svg>
